<?xml version="1.0" encoding="utf-8"?>
<!-- Generator: Adobe Illustrator 21.1.0, SVG Export Plug-In . SVG Version: 6.00 Build 0)  -->
<svg version="1.1" id="Layer_1" xmlns="http://www.w3.org/2000/svg" xmlns:xlink="http://www.w3.org/1999/xlink" x="0px" y="0px"
	 viewBox="0 0 1080 1080" style="enable-background:new 0 0 1080 1080;" xml:space="preserve">
<style type="text/css">
	.st0{fill:#333333;}
	.st1{fill:#CCCCCB;stroke:#000000;stroke-miterlimit:10;}
	.st2{fill:#653614;}
</style>
<polygon class="st0" points="174,538.8 16,630 56.8,700.6 267.4,700.6 "/>
<polygon class="st0" points="360.5,380.9 202.5,472.1 334.5,700.6 545.1,700.6 "/>
<polygon class="st0" points="542,218.2 384,309.4 609.9,700.6 820.6,700.6 "/>
<g>
	<path class="st0" d="M698.6,216.6l216.1-0.8c49-0.2,88.1,13.9,117.1,42.2c29,28.3,43.6,61.9,43.7,100.8
		c0.2,40.2-14,74.8-42.5,103.5c-28.5,28.8-67.3,43.3-116.6,43.5l-96.1,0.4l0.7,194.6l-120.7,0.5L698.6,216.6z M819.7,305l0.4,112.4
		l56.2-0.2c50.2-0.2,75.2-19,75.1-56.5c-0.1-21-6.8-35.6-20.3-43.8c-13.4-8.2-36.4-12.2-68.7-12.1L819.7,305z"/>
</g>
<g>
	<path class="st0" d="M866.7,513.2v14.6c0,3.2-0.9,5.7-2.8,7.7c-1.9,2-4.1,3-6.8,3c-3.7,0-6.4-1.9-8.1-5.6c-0.8,1.6-2.8,3.2-6.1,4.7
		c-3.3,1.5-6.5,2.9-9.4,4.3v-8.9c1.1-0.5,3.2-1.5,6.3-2.8c3.1-1.3,5.1-2.5,5.9-3.4c0.9-0.9,1.3-2,1.3-3v-2.3h-13.5v-8.1H866.7z
		 M860.6,521.3H853v4.3c0,1.4,0.3,2.5,1,3.3c0.7,0.8,1.6,1.2,2.8,1.2c2.5,0,3.8-1.5,3.8-4.6V521.3z"/>
	<path class="st0" d="M867.1,562.2c0,5.6-1.7,10.1-5.1,13.5c-3.4,3.4-7.4,5.2-11.9,5.2c-4.6,0-8.6-1.7-12-5.2
		c-3.4-3.5-5.1-8-5.1-13.4c0-5.5,1.7-10,5-13.5c3.4-3.5,7.4-5.2,12-5.2c4.6,0,8.5,1.7,11.9,5.2C865.4,552.1,867.1,556.6,867.1,562.2
		z M839.9,562.2c0,3.1,0.9,5.6,2.8,7.5c1.9,1.9,4.3,2.8,7.3,2.8c3,0,5.5-0.9,7.4-2.8c1.9-1.9,2.8-4.4,2.8-7.5c0-3.1-0.9-5.6-2.8-7.5
		c-1.9-1.9-4.3-2.8-7.4-2.8c-3,0-5.5,0.9-7.3,2.8C840.9,556.6,839.9,559.1,839.9,562.2z"/>
	<path class="st0" d="M866.7,595.4h-30.2c-8.5,0-12.8-3.8-12.8-11.5c0-0.7,0-1.5,0.1-2.4h6.5c-0.1,0.4-0.1,0.8-0.1,1.2
		c0,3,2,4.6,6.1,4.6h30.3V595.4z"/>
	<path class="st0" d="M839.5,626.8h-6.1v-24.1h33.2v23.7h-6.1v-15.6h-7v14.9h-6.1v-14.9h-8V626.8z"/>
	<path class="st0" d="M843.6,663.4h-7.3c-2.2-4.1-3.3-8.4-3.3-12.8c0-5.8,1.6-10.4,4.9-13.8c3.3-3.4,7.3-5.2,12.1-5.2
		s8.8,1.8,12.2,5.4s5,8.4,5,14.2c0,4.7-1,8.6-2.9,11.8h-7.4c2.3-4,3.4-7.7,3.4-11.2c0-3.5-0.9-6.3-2.8-8.5c-1.9-2.2-4.3-3.3-7.2-3.3
		c-3,0-5.4,1.1-7.3,3.3c-1.9,2.2-2.9,5-2.9,8.4c0,1.7,0.2,3.3,0.7,4.9C841.1,658,842,660.3,843.6,663.4z"/>
	<path class="st0" d="M866.7,699.3h-6.1v-11.8h-27.1v-8.1h27.1v-11.8h6.1V699.3z"/>
</g>
<path d="M449.5,234.4"/>
<path d="M613.9,298.8"/>
<polygon class="st1" points="578.8,281.9 563.9,335.5 531.2,298.8 515.9,351.9 495.5,294.7 461.7,335.5 449.5,289.6 421.9,326.3 
	384,309.4 542,218.2 "/>
<polygon class="st1" points="416.3,477.6 373.8,453 360.6,500.5 314.7,439.2 279.4,482.1 279.4,427.8 360.5,380.9 "/>
<polygon class="st2" points="56.8,700.6 72.1,690.1 85.6,695.4 102.1,690.1 112.6,690.1 154.6,690.1 163.8,693 171.5,691.8 
	189.8,693 202.5,693.5 205,695.4 217.5,695.4 221.8,698.8 228,697.8 233.3,699 242.8,700.6 251.3,698.5 255.5,699.3 267.4,700.6 "/>
<polygon class="st2" points="334.5,700.6 349.8,690.1 363.3,695.4 379.8,690.1 390.3,690.1 432.3,690.1 441.4,693 449.2,691.8 
	467.4,693 480.2,693.5 482.7,695.4 495.2,695.4 499.4,698.8 505.7,697.8 510.9,699 520.4,700.6 528.9,698.5 533.2,699.3 
	545.1,700.6 "/>
<polygon class="st2" points="609.9,700.6 625.3,690.1 638.8,695.4 655.3,690.1 665.8,690.1 707.8,690.1 716.9,693 724.7,691.8 
	742.9,693 755.7,693.5 758.2,695.4 770.7,695.4 774.9,698.8 781.2,697.8 786.4,699 795.9,700.6 804.4,698.5 808.7,699.3 
	820.6,700.6 "/>
<polygon class="st1" points="811.1,216.2 769.1,283 769.1,232.4 740.6,283 740.6,239.6 709.1,305.6 698.6,251.6 698.6,216.2 "/>
</svg>
